<svg xmlns="http://www.w3.org/2000/svg" viewBox="0 0 800 800"><defs><style>.cls-1{fill:#101920;}.cls-2{fill:#17242d;}</style></defs><g id="bg"><rect class="cls-1" width="800" height="800"/></g><g id="Layer_1" data-name="Layer 1"><path class="cls-2" d="M594.5,639.1H722.83c5.71,0,5.72-8.86,0-8.86H594.5C588.79,630.24,588.78,639.1,594.5,639.1Z"/><path class="cls-2" d="M536.9,688.17v64.67c0,5.7,8.86,5.71,8.86,0V688.17C545.76,682.47,536.9,682.46,536.9,688.17Z"/><path class="cls-2" d="M771.56,688.17v64.67c0,5.7,8.87,5.71,8.87,0V688.17C780.43,682.46,771.56,682.45,771.56,688.17Z"/><path class="cls-2" d="M755.67,655a4.07,4.07,0,0,0-4.17-3.43H565.83a27.86,27.86,0,0,0-7.6,7.6v98c0,5.71,8.87,5.71,8.87,0V660.44H750.23v96.73c0,5.71,8.87,5.72,8.87,0v-98A4.08,4.08,0,0,0,755.67,655Z"/><path class="cls-2" d="M733.33,672.9H584a4.5,4.5,0,0,0-4.44,4.44V765.5c0,5.71,8.87,5.72,8.87,0V681.77H728.9V765.5c0,5.71,8.86,5.72,8.86,0V677.34A4.5,4.5,0,0,0,733.33,672.9Z"/><path class="cls-2" d="M712,694.24H605.33a4.49,4.49,0,0,0-4.43,4.43V778.5c0,5.71,8.86,5.72,8.86,0V703.1h97.8v75.4c0,5.71,8.87,5.72,8.87,0V698.67A4.49,4.49,0,0,0,712,694.24Z"/><path class="cls-2" d="M693.77,716.85l-.09-.08a4.09,4.09,0,0,0-3-1.2h-64a4.5,4.5,0,0,0-4.43,4.43v64a4.5,4.5,0,0,0,4.43,4.44h64A4.5,4.5,0,0,0,695.1,784V720a4.11,4.11,0,0,0-1.19-3Zm-7.54,62.72H631.1V724.44h55.13Z"/><path class="cls-2" d="M648,767.1h21.33a4.49,4.49,0,0,0,4.43-4.43V741.34a4.1,4.1,0,0,0-1.18-3l-.15-.15a.3.3,0,0,0-.08-.08,4.07,4.07,0,0,0-3-1.21H648a4.5,4.5,0,0,0-4.44,4.44v21.33A4.49,4.49,0,0,0,648,767.1Zm4.43-21.33H664.9v12.47H652.43Z"/><path class="cls-2" d="M705.44,800h13.1A114,114,0,0,1,792,772.44c2.69,0,5.35.14,8,.35V763.9c-2.65-.19-5.32-.31-8-.33A123.62,123.62,0,0,0,705.44,800Z"/><path class="cls-2" d="M788.73,785a100.72,100.72,0,0,0-48.91,15h19.47a91.72,91.72,0,0,1,29.44-6.18c1.09,0,2.18-.05,3.27-.05q4,0,8,.43v-8.9q-4-.36-8-.4Q790.37,784.9,788.73,785Z"/><path class="cls-2" d="M800,717.62V705.13L794.16,711C790.27,714.86,796,720.84,800,717.62Z"/><path class="cls-2" d="M788.86,746.44c-4,4,2.23,10.31,6.27,6.27l4.87-4.87V735.3Z"/><path class="cls-2" d="M194.5,772.44H322.83c5.71,0,5.72-8.87,0-8.87H194.5C188.79,763.57,188.78,772.44,194.5,772.44Z"/><path class="cls-2" d="M355.67,788.33a4.08,4.08,0,0,0-4.17-3.43H165.83a4.08,4.08,0,0,0-4.17,3.43,4.07,4.07,0,0,0-3.43,4.17V800h8.87v-6.23H350.23V800h8.87v-7.5A4.08,4.08,0,0,0,355.67,788.33Z"/><path class="cls-2" d="M566.13,753.93c-4-4-10.31,2.23-6.27,6.27l39.8,39.8H612.2l-34.68-34.67Z"/><path class="cls-2" d="M490.71,760.29c4-4-2.23-10.31-6.27-6.27l-46,46H451l28.32-28.32Z"/><path class="cls-2" d="M530.9,748.87a38,38,0,0,0-11.14,0L468.63,800h12.54l28.63-28.63,15.53-15.53L569.49,800H582l-34.9-34.9Z"/><path class="cls-2" d="M528.46,776.61a4.49,4.49,0,0,0-6.27,0L498.8,800h12.54l4-4,10-10q7,7,14,14h12.54l-10.43-10.43Z"/><path class="cls-2" d="M0,763.9v8.89A113.69,113.69,0,0,1,65.16,800H78.09A122.92,122.92,0,0,0,0,763.9Z"/><path class="cls-2" d="M0,794.2A91.36,91.36,0,0,1,24.49,800H44.11A100.51,100.51,0,0,0,0,785.3Z"/><path class="cls-2" d="M238.75,705.75l11.39,11.4c4,4,10.31-2.23,6.27-6.27L177.52,632,166.13,620.6c-4-4-10.31,2.23-6.27,6.27Z"/><path class="cls-2" d="M79.32,638.35Q85,632.65,90.71,627c4-4-2.23-10.31-6.27-6.27L5.56,699.57c-1.86,1.85-3.71,3.71-5.56,5.56v12.49a3.89,3.89,0,0,0,.43-.39Z"/><path class="cls-2" d="M125.33,622.51l114,114,16.23,16.24c4,4,10.31-2.23,6.27-6.27L147.13,631.77,130.9,615.54a4.1,4.1,0,0,0-5.57-.41,4.1,4.1,0,0,0-5.57.41L5.09,730.2,0,735.3v12.54L109.8,638Z"/><path class="cls-2" d="M141.43,656.24l-13-13a4.5,4.5,0,0,0-6.26,0L30.68,734.79,17.54,747.93l-.94.94a4.5,4.5,0,0,0,0,6.27l3.65,3.65a4.43,4.43,0,0,0,6.27-6.27L26,752l89.32-89.32,10-10,89.49,89.49,13,13c4,4,10.31-2.23,6.27-6.27Z"/><path class="cls-2" d="M203.89,748.87l-75.43-75.43a4.5,4.5,0,0,0-6.26,0l-14.15,14.15L46.77,748.87a4.5,4.5,0,0,0,0,6.27L91.63,800h12.54l-48-48,58.14-58.14,11-11L194.48,752l-48,48H159l44.86-44.86A4.5,4.5,0,0,0,203.89,748.87Z"/><path class="cls-2" d="M175,752.17a1,1,0,0,0,0-.17.81.81,0,0,0,0-.16,4.07,4.07,0,0,0-1.28-3l-45.26-45.26a4.5,4.5,0,0,0-6.26,0L76.94,748.87a4.5,4.5,0,0,0,0,6.27L121.8,800h7.06l44.86-44.86A4.07,4.07,0,0,0,175,752.17ZM125.33,791l-39-39,39-39,39,39Z"/><path class="cls-2" d="M107.11,748.87a4.5,4.5,0,0,0,0,6.27l15.09,15.08a4.48,4.48,0,0,0,6.26,0l15.09-15.08a4.07,4.07,0,0,0,1.28-3,1,1,0,0,0,0-.17.81.81,0,0,0,0-.16,4.07,4.07,0,0,0-1.28-3l-15.09-15.09a4.5,4.5,0,0,0-6.26,0Zm27,3.13-8.82,8.82L116.51,752l8.82-8.81Z"/><path class="cls-2" d="M594.5,372.44H722.83c5.71,0,5.72-8.87,0-8.87H594.5C588.79,363.57,588.78,372.44,594.5,372.44Z"/><path class="cls-2" d="M536.9,421.5v64.67c0,5.7,8.86,5.71,8.86,0V421.5C545.76,415.8,536.9,415.79,536.9,421.5Z"/><path class="cls-2" d="M771.56,421.5v64.67c0,5.71,8.87,5.72,8.87,0V421.5C780.43,415.8,771.56,415.79,771.56,421.5Z"/><path class="cls-2" d="M755.67,388.33a4.08,4.08,0,0,0-4.17-3.43H565.83a27.86,27.86,0,0,0-7.6,7.6v98c0,5.71,8.87,5.72,8.87,0V393.77H750.23V490.5c0,5.71,8.87,5.72,8.87,0v-98A4.09,4.09,0,0,0,755.67,388.33Z"/><path class="cls-2" d="M664.16,576.9H653.49c-5.7,0-5.71,8.87,0,8.87h10.67C669.87,585.77,669.87,576.9,664.16,576.9Z"/><path class="cls-2" d="M672.16,555.57h-27c-5.7,0-5.71,8.87,0,8.87h27C677.87,564.44,677.88,555.57,672.16,555.57Z"/><path class="cls-2" d="M733.33,406.24H584a4.5,4.5,0,0,0-4.44,4.43v88.17c0,5.7,8.87,5.71,8.87,0V415.1H728.9v83.74c0,5.7,8.86,5.71,8.86,0V410.67A4.49,4.49,0,0,0,733.33,406.24Z"/><path class="cls-2" d="M685.16,534.24h-53c-5.7,0-5.71,8.86,0,8.86h53C690.87,543.1,690.88,534.24,685.16,534.24Z"/><path class="cls-2" d="M712,427.57H605.33A4.49,4.49,0,0,0,600.9,432v79.84c0,5.7,8.86,5.71,8.86,0v-75.4h97.8v75.4c0,5.7,8.87,5.71,8.87,0V432A4.5,4.5,0,0,0,712,427.57Z"/><path class="cls-2" d="M693.77,450.19l-.09-.08a4.05,4.05,0,0,0-3-1.21h-64a4.5,4.5,0,0,0-4.43,4.44v64a4.5,4.5,0,0,0,4.43,4.43h64a4.5,4.5,0,0,0,4.44-4.43v-64a4.11,4.11,0,0,0-1.19-3Zm-7.54,62.71H631.1V457.77h55.13Z"/><path class="cls-2" d="M648,500.44h21.33a4.49,4.49,0,0,0,4.43-4.44V474.67a4.1,4.1,0,0,0-1.18-3l-.15-.15-.08-.08a4.1,4.1,0,0,0-3-1.2H648a4.5,4.5,0,0,0-4.44,4.43V496A4.5,4.5,0,0,0,648,500.44Zm4.43-21.34H664.9v12.47H652.43Z"/><path class="cls-2" d="M680.09,570.67c-.08.19-.12.37-.18.56a3.93,3.93,0,0,0-.26.5,123.87,123.87,0,0,0-9.42,47.77c0,5.71,8.89,5.72,8.87,0A117.43,117.43,0,0,1,688,574.71a114.53,114.53,0,0,1,104-68.94c2.69,0,5.35.14,8,.35v-8.88c-2.65-.2-5.32-.32-8-.34C743.57,497.31,699.39,526.14,680.09,570.67Z"/><path class="cls-2" d="M793.63,710.22c-2.28,0-4.55,0-6.83-.12a4.45,4.45,0,0,0-4.43,4.43A4.53,4.53,0,0,0,786.8,719c2.28.11,4.55.15,6.83.12,1.28,0,2.56-.07,3.83-.14a5.12,5.12,0,0,0,2.54-.87v-7.19a3.81,3.81,0,0,0-2.54-.81C796.19,710.15,794.91,710.2,793.63,710.22Z"/><path class="cls-2" d="M788.73,518.29a101.61,101.61,0,0,0-97,105.66c.23,5.69,9.09,5.72,8.86,0-2.07-50.91,36.89-94.59,88.16-96.79q1.63-.06,3.27-.06c2.69,0,5.36.18,8,.43v-8.9q-4-.36-8-.39C790.91,518.24,789.82,518.26,788.73,518.29Z"/><path class="cls-2" d="M778.7,687.66c-5.58-1-8,7.53-2.35,8.55a86.24,86.24,0,0,0,23.65,1v-8.85A73.56,73.56,0,0,1,778.7,687.66Z"/><path class="cls-2" d="M714.43,634.17c1,5.61,9.54,3.23,8.55-2.36a71,71,0,0,1,69-83.37,70.23,70.23,0,0,1,8,.54v-8.91c-2.63-.29-5.29-.47-8-.5C742.15,540.18,705.76,585.42,714.43,634.17Z"/><path class="cls-2" d="M757.1,572.67c-.15.12-.27.25-.41.38a4.55,4.55,0,0,0-.49.32c-18.22,14.68-26.33,39.22-19.57,61.8A58.28,58.28,0,0,0,779,675a56.17,56.17,0,0,0,21,.78v-9.21c-20.46,3.12-42.67-6.37-52.42-27.31s-2.91-44.93,14.49-59.24A51.22,51.22,0,0,1,792,569.77a49.86,49.86,0,0,1,8,.79v-9a62.4,62.4,0,0,0-8-.68A59.61,59.61,0,0,0,757.1,572.67Z"/><path class="cls-2" d="M757.77,606.24a36.66,36.66,0,0,0,11,40.45A35,35,0,0,0,800,653.78V645a27.25,27.25,0,0,1-8,1.24,27.82,27.82,0,0,1-27.57-27.57c0-15.35,12.54-27.15,27.57-27.57a29.46,29.46,0,0,1,8,1.35V583.3a38,38,0,0,0-8-1.06C776.72,582.66,763.11,591.72,757.77,606.24Z"/><path class="cls-2" d="M792,603.57a4.2,4.2,0,0,0-1.31.13c-7.6,1-13.79,6.89-13.79,15a15.29,15.29,0,0,0,15.1,15.1,14.74,14.74,0,0,0,8-2.36V606.07a16.85,16.85,0,0,0-6.68-2.37A4.33,4.33,0,0,0,792,603.57Zm0,21.33c-8.07,0-8-12,0-12.46C800,612.87,800.05,624.9,792,624.9Z"/><path class="cls-2" d="M800,451V438.46l-5.84,5.84C790.27,448.2,796,454.17,800,451Z"/><path class="cls-2" d="M788.86,479.77c-4,4,2.23,10.31,6.27,6.27l4.87-4.87V468.63Z"/><path class="cls-2" d="M194.5,505.77H322.83c5.71,0,5.72-8.87,0-8.87H194.5C188.79,496.9,188.78,505.77,194.5,505.77Z"/><path class="cls-2" d="M145.76,619.5V554.84c0-5.71-8.86-5.72-8.86,0V619.5C136.9,625.21,145.76,625.22,145.76,619.5Z"/><path class="cls-2" d="M380.43,619.5V554.84c0-5.71-8.87-5.72-8.87,0V619.5C371.56,625.21,380.43,625.22,380.43,619.5Z"/><path class="cls-2" d="M167.1,623.84V527.1H350.23v96.74c0,5.7,8.87,5.71,8.87,0v-98a27.64,27.64,0,0,0-7.6-7.59H165.83a4.07,4.07,0,0,0-4.17,3.42,4.07,4.07,0,0,0-3.43,4.17v98C158.23,629.54,167.1,629.55,167.1,623.84Z"/><path class="cls-2" d="M264.16,710.24H253.49c-5.7,0-5.71,8.86,0,8.86h10.67C269.87,719.1,269.88,710.24,264.16,710.24Z"/><path class="cls-2" d="M272.16,688.9h-27c-5.7,0-5.71,8.87,0,8.87h27C277.87,697.77,277.88,688.9,272.16,688.9Z"/><path class="cls-2" d="M328.9,548.44v83.73c0,5.71,8.86,5.72,8.86,0V544a4.5,4.5,0,0,0-4.43-4.43H184a4.5,4.5,0,0,0-4.44,4.43v88.17c0,5.71,8.87,5.72,8.87,0V548.44H328.9Z"/><path class="cls-2" d="M285.16,667.57h-53c-5.7,0-5.71,8.87,0,8.87h53C290.87,676.44,290.88,667.57,285.16,667.57Z"/><path class="cls-2" d="M307.56,645.17c0,5.71,8.87,5.72,8.87,0V565.34A4.5,4.5,0,0,0,312,560.9H205.33a4.49,4.49,0,0,0-4.43,4.44v79.83c0,5.71,8.86,5.72,8.86,0v-75.4h97.8Z"/><path class="cls-2" d="M295.1,650.67v-64a4.11,4.11,0,0,0-1.19-3l-.14-.15-.09-.08a4.09,4.09,0,0,0-3-1.2h-64a4.5,4.5,0,0,0-4.43,4.43v64a4.49,4.49,0,0,0,4.43,4.43h64A4.5,4.5,0,0,0,295.1,650.67Zm-8.87-4.43H231.1V591.1h55.13Z"/><path class="cls-2" d="M248,633.77h21.33a4.49,4.49,0,0,0,4.43-4.43V608a4.06,4.06,0,0,0-1.18-3,2,2,0,0,1-.14-.16l-.09-.08a4.1,4.1,0,0,0-3-1.2H248a4.5,4.5,0,0,0-4.44,4.43v21.34A4.5,4.5,0,0,0,248,633.77Zm4.43-21.33H264.9V624.9H252.43Z"/><path class="cls-2" d="M392,630.24c-48.43.4-92.61,29.24-111.91,73.77-.08.18-.12.37-.18.55a4.74,4.74,0,0,0-.26.5,124.09,124.09,0,0,0-9.42,47.77c0,5.71,8.89,5.72,8.87,0A117.35,117.35,0,0,1,288,708.05,114.54,114.54,0,0,1,392,639.1c62,.49,113.11,51.51,112.89,113.74,0,5.7,8.85,5.71,8.87,0C514,685.79,458.81,630.76,392,630.24Z"/><path class="cls-2" d="M392,651.57c-1.09,0-2.18,0-3.27,0a101.61,101.61,0,0,0-97,105.67c.23,5.68,9.1,5.71,8.86,0-2.07-50.91,36.89-94.59,88.16-96.8,1.09,0,2.18,0,3.27,0,52.43.5,93.81,44.65,91.42,96.91-.26,5.7,8.6,5.69,8.86,0C494.89,700.26,449.06,652.11,392,651.57Z"/><path class="cls-2" d="M392,672.9c-49.85.61-86.24,45.86-77.57,94.6,1,5.61,9.54,3.23,8.55-2.36-7.67-43.1,25.31-82.83,69-83.37,43.61.54,76.59,40.12,69.06,83.17-1,5.58,7.56,8,8.55,2.36C478.13,718.61,441.76,673.51,392,672.9Z"/><path class="cls-2" d="M445.92,731.29c-8.68-22.33-30.13-36.64-53.92-37A59.47,59.47,0,0,0,357.1,706a4.72,4.72,0,0,0-.41.37,4.55,4.55,0,0,0-.49.32c-18.22,14.68-26.33,39.23-19.57,61.8a58.5,58.5,0,0,0,23.3,31.5h25.58c-15.7-2.1-30.47-11.43-37.93-27.46-9.7-20.85-2.91-44.93,14.49-59.24A51.31,51.31,0,0,1,392,703.1c37.94.66,61.94,43.16,41,75.57A47.3,47.3,0,0,1,399,800h24.2C444.48,785.81,456.36,758.17,445.92,731.29Z"/><path class="cls-2" d="M427.82,745.46C424.71,728,409.36,716.05,392,715.57c-15.28.43-28.89,9.49-34.23,24a36.65,36.65,0,0,0,11,40.45C394.46,801.24,433.67,778.21,427.82,745.46ZM364.43,752c0-15.34,12.54-27.14,27.57-27.56,15,.42,27.56,12.22,27.56,27.56a27.57,27.57,0,1,1-55.13,0Z"/><path class="cls-2" d="M407.06,752.58c.37-8.29-6-14.52-13.74-15.55a5.06,5.06,0,0,0-1.32-.13,4.94,4.94,0,0,0-1.31.13c-7.6,1-13.79,6.9-13.79,15a15.09,15.09,0,0,0,30.16.58ZM392,745.77c8,.43,8.05,12.47,0,12.47S384,746.2,392,745.77Z"/><path class="cls-2" d="M638.75,572.42q5.68,5.7,11.39,11.39c4,4,10.31-2.22,6.27-6.27l-78.89-78.88-11.39-11.39c-4-4-10.31,2.23-6.27,6.27Z"/><path class="cls-2" d="M400.43,583.9,479.32,505l11.39-11.39c4-4-2.23-10.32-6.27-6.27l-78.88,78.88-11.4,11.39C390.12,581.67,396.39,587.94,400.43,583.9Z"/><path class="cls-2" d="M395.13,619.37,509.8,504.7l15.53-15.52,114,114,16.23,16.23c4,4,10.31-2.22,6.27-6.27L547.13,498.43,530.9,482.2a39,39,0,0,0-11.14,0L405.09,596.87,388.86,613.1C384.82,617.14,391.09,623.42,395.13,619.37Z"/><path class="cls-2" d="M541.43,522.91l-13-13a4.5,4.5,0,0,0-6.27,0l-91.51,91.52-13.14,13.13-.94.95a4.49,4.49,0,0,0,0,6.26l3.65,3.66a4.43,4.43,0,0,0,6.27-6.27c-.17-.18-.34-.35-.52-.52l89.33-89.32,10-10,89.49,89.49,13,13c4,4,10.31-2.22,6.27-6.26Z"/><path class="cls-2" d="M528.46,540.11a4.5,4.5,0,0,0-6.27,0l-14.14,14.14-61.28,61.29a4.49,4.49,0,0,0,0,6.26l75.42,75.43a4.5,4.5,0,0,0,6.27,0q37.72-37.71,75.43-75.43a4.49,4.49,0,0,0,0-6.26Zm-3.13,147.71-69.16-69.15,58.15-58.15,11-11,69.15,69.16Z"/><path class="cls-2" d="M476.94,615.54a4.49,4.49,0,0,0,0,6.26l45.25,45.26a4.5,4.5,0,0,0,6.27,0l45.26-45.26a4,4,0,0,0,1.28-3,1.09,1.09,0,0,0,0-.18.76.76,0,0,0,0-.15,4.07,4.07,0,0,0-1.28-3l-45.26-45.26a4.5,4.5,0,0,0-6.27,0Zm87.37,3.13-39,39-39-39,39-39Z"/><path class="cls-2" d="M507.11,621.8l15.08,15.09a4.5,4.5,0,0,0,6.27,0l15.09-15.09a4,4,0,0,0,1.28-3,1.09,1.09,0,0,0,0-.18.76.76,0,0,0,0-.15,4.07,4.07,0,0,0-1.28-3l-15.09-15.09a4.5,4.5,0,0,0-6.27,0l-15.08,15.09A4.49,4.49,0,0,0,507.11,621.8Zm18.22-11.95,8.81,8.82-8.81,8.82-8.82-8.82Z"/><path class="cls-2" d="M104.89,619.5c0,5.71,8.85,5.72,8.87,0C114,555.16,63.16,501.88,0,497.24v8.88C58.36,510.71,105.1,560,104.89,619.5Z"/><path class="cls-2" d="M1.9,714.52A5,5,0,0,0,0,710.89v7.19A4.1,4.1,0,0,0,1.9,714.52Z"/><path class="cls-2" d="M83.42,624c-.26,5.7,8.6,5.69,8.86,0,2.49-54.4-39-100.67-92.28-105.39v8.9C48.57,532.18,85.68,574.44,83.42,624Z"/><path class="cls-2" d="M5.17,687.68c-1.72.31-3.44.55-5.17.73v8.85q3.75-.35,7.53-1C13.13,695.22,10.76,686.67,5.17,687.68Z"/><path class="cls-2" d="M61.06,631.6c-1,5.59,7.56,8,8.55,2.36,8.06-46-24-88.85-69.61-93.89V549C39.55,553.91,68.12,591.24,61.06,631.6Z"/><path class="cls-2" d="M45.92,598A58.32,58.32,0,0,0,0,561.58v9c33.17,6,52.42,44.71,33,74.78A47.27,47.27,0,0,1,0,666.52v9.21C34.46,670.46,59.74,633.54,45.92,598Z"/><path class="cls-2" d="M27.82,612.13C25.2,597.43,13.88,586.62,0,583.3v9.15a27.54,27.54,0,0,1,19.56,26.22A27.84,27.84,0,0,1,0,645v8.78C17.38,649.45,31.5,632.71,27.82,612.13Z"/><path class="cls-2" d="M7.07,619.25A14.59,14.59,0,0,0,0,606.07v25.34A15.38,15.38,0,0,0,7.07,619.25Z"/><path class="cls-2" d="M238.75,439.09l11.39,11.39c4,4,10.31-2.23,6.27-6.27l-78.89-78.88-11.39-11.39c-4-4-10.31,2.22-6.27,6.26Z"/><path class="cls-2" d="M79.32,371.69l11.39-11.4c4-4-2.23-10.31-6.27-6.27L5.56,432.91,0,438.46V451a3.78,3.78,0,0,0,.43-.38Z"/><path class="cls-2" d="M125.33,355.84l114,114L255.53,486c4,4,10.31-2.23,6.27-6.27Q204.46,422.44,147.13,365.1L130.9,348.87a4.11,4.11,0,0,0-5.57-.41,4.11,4.11,0,0,0-5.57.41L5.09,463.54,0,468.63v12.54l109.8-109.8Z"/><path class="cls-2" d="M141.43,389.58l-13-13a4.48,4.48,0,0,0-6.26,0L30.68,468.12,17.54,481.26l-.94.94a4.5,4.5,0,0,0,0,6.27l3.65,3.65a4.43,4.43,0,0,0,6.27-6.27l-.51-.51L115.33,396q5-5,10-10l89.49,89.49,13,13c4,4,10.31-2.23,6.27-6.27Z"/><path class="cls-2" d="M128.46,406.78a4.48,4.48,0,0,0-6.26,0l-14.15,14.14L46.77,482.2a4.5,4.5,0,0,0,0,6.27L122.2,563.9a4.5,4.5,0,0,0,6.26,0l75.43-75.43a4.5,4.5,0,0,0,0-6.27Zm-3.13,147.71L56.18,485.34l58.14-58.15,11-11,69.15,69.16Z"/><path class="cls-2" d="M76.94,482.2a4.5,4.5,0,0,0,0,6.27l45.26,45.26a4.5,4.5,0,0,0,6.26,0l45.26-45.26a4.06,4.06,0,0,0,1.28-3,1.09,1.09,0,0,0,0-.18.92.92,0,0,0,0-.16,4.1,4.1,0,0,0-1.28-3L128.46,437a4.48,4.48,0,0,0-6.26,0Zm87.37,3.14-39,39-39-39,39-39Z"/><path class="cls-2" d="M107.11,488.47l15.09,15.09a4.5,4.5,0,0,0,6.26,0l15.09-15.09a4.06,4.06,0,0,0,1.28-3,1.09,1.09,0,0,0,0-.18.92.92,0,0,0,0-.16,4.1,4.1,0,0,0-1.28-3l-15.09-15.08a4.48,4.48,0,0,0-6.26,0L107.11,482.2A4.5,4.5,0,0,0,107.11,488.47Zm18.22-12,8.82,8.82-8.82,8.81-8.82-8.81Z"/><path class="cls-2" d="M594.5,105.77H722.83c5.71,0,5.72-8.87,0-8.87H594.5C588.79,96.9,588.78,105.77,594.5,105.77Z"/><path class="cls-2" d="M536.9,154.84V219.5c0,5.71,8.86,5.72,8.86,0V154.84C545.76,149.13,536.9,149.12,536.9,154.84Z"/><path class="cls-2" d="M771.56,154.84V219.5c0,5.71,8.87,5.72,8.87,0V154.84C780.43,149.13,771.56,149.12,771.56,154.84Z"/><path class="cls-2" d="M755.67,121.67a4.07,4.07,0,0,0-4.17-3.43H565.83a4.07,4.07,0,0,0-4.17,3.42,4.07,4.07,0,0,0-3.43,4.17v98c0,5.7,8.87,5.71,8.87,0V127.1H750.23v96.74c0,5.7,8.87,5.71,8.87,0v-98A4.08,4.08,0,0,0,755.67,121.67Z"/><path class="cls-2" d="M664.16,310.24H653.49c-5.7,0-5.71,8.86,0,8.86h10.67C669.87,319.1,669.87,310.24,664.16,310.24Z"/><path class="cls-2" d="M672.16,288.9h-27c-5.7,0-5.71,8.87,0,8.87h27C677.87,297.77,677.88,288.9,672.16,288.9Z"/><path class="cls-2" d="M733.33,139.57H584a4.5,4.5,0,0,0-4.44,4.43v88.17c0,5.71,8.87,5.72,8.87,0V148.44H728.9v83.73c0,5.71,8.86,5.72,8.86,0V144A4.5,4.5,0,0,0,733.33,139.57Z"/><path class="cls-2" d="M685.16,267.57h-53c-5.7,0-5.71,8.87,0,8.87h53C690.87,276.44,690.88,267.57,685.16,267.57Z"/><path class="cls-2" d="M712,160.9H605.33a4.5,4.5,0,0,0-4.43,4.44v79.83c0,5.71,8.86,5.72,8.86,0v-75.4h97.8v75.4c0,5.71,8.87,5.72,8.87,0V165.34A4.5,4.5,0,0,0,712,160.9Z"/><path class="cls-2" d="M693.77,183.52l-.09-.08a4.09,4.09,0,0,0-3-1.2h-64a4.5,4.5,0,0,0-4.43,4.43v64a4.49,4.49,0,0,0,4.43,4.43h64a4.5,4.5,0,0,0,4.44-4.43v-64a4.11,4.11,0,0,0-1.19-3Zm-7.54,62.72H631.1V191.1h55.13Z"/><path class="cls-2" d="M648,233.77h21.33a4.49,4.49,0,0,0,4.43-4.43V208a4.06,4.06,0,0,0-1.18-3l-.15-.16-.08-.08a4.1,4.1,0,0,0-3-1.2H648a4.5,4.5,0,0,0-4.44,4.43v21.34A4.5,4.5,0,0,0,648,233.77Zm4.43-21.33H664.9V224.9H652.43Z"/><path class="cls-2" d="M680.09,304c-.08.18-.12.37-.18.55a4.06,4.06,0,0,0-.26.51,123.83,123.83,0,0,0-9.42,47.77c0,5.7,8.89,5.71,8.87,0A117.36,117.36,0,0,1,688,308.05a114.54,114.54,0,0,1,104-69c2.69,0,5.35.15,8,.35v-8.88c-2.65-.19-5.32-.31-8-.33C743.57,230.64,699.39,259.48,680.09,304Z"/><path class="cls-2" d="M793.63,443.56c-2.28,0-4.55,0-6.83-.13a4.46,4.46,0,0,0-4.43,4.44,4.53,4.53,0,0,0,4.43,4.43c2.28.11,4.55.15,6.83.12,1.28,0,2.56-.07,3.83-.14a5,5,0,0,0,2.54-.87v-7.19a3.76,3.76,0,0,0-2.54-.8C796.19,443.49,794.91,443.53,793.63,443.56Z"/><path class="cls-2" d="M788.73,251.63a101.6,101.6,0,0,0-97,105.66c.23,5.68,9.09,5.71,8.86,0-2.07-50.91,36.89-94.59,88.16-96.8,1.09,0,2.18-.05,3.27-.05,2.69,0,5.36.17,8,.42V252q-4-.35-8-.39Q790.37,251.57,788.73,251.63Z"/><path class="cls-2" d="M778.7,421c-5.58-1-8,7.53-2.35,8.55a85.85,85.85,0,0,0,23.65,1v-8.84A73.91,73.91,0,0,1,778.7,421Z"/><path class="cls-2" d="M714.43,367.5c1,5.61,9.54,3.23,8.55-2.35a71,71,0,0,1,69-83.38,70.22,70.22,0,0,1,8,.55V273.4c-2.63-.29-5.29-.46-8-.5C742.15,273.52,705.76,318.76,714.43,367.5Z"/><path class="cls-2" d="M757.1,306c-.15.11-.27.25-.41.37a4.55,4.55,0,0,0-.49.32c-18.22,14.68-26.33,39.23-19.57,61.8A58.26,58.26,0,0,0,779,408.28a56.17,56.17,0,0,0,21,.78v-9.2c-20.46,3.11-42.67-6.38-52.42-27.32s-2.91-44.93,14.49-59.23A51.23,51.23,0,0,1,792,303.1a49.86,49.86,0,0,1,8,.79v-9A55.57,55.57,0,0,0,757.1,306Z"/><path class="cls-2" d="M757.77,339.57a36.65,36.65,0,0,0,11,40.45A34.91,34.91,0,0,0,800,387.11v-8.78a27.25,27.25,0,0,1-8,1.24A27.81,27.81,0,0,1,764.43,352c0-15.34,12.54-27.14,27.57-27.56a28.71,28.71,0,0,1,8,1.35v-9.16a39.31,39.31,0,0,0-8-1.06C776.72,316,763.11,325.06,757.77,339.57Z"/><path class="cls-2" d="M792,336.9a4.89,4.89,0,0,0-1.31.13c-7.6,1-13.79,6.9-13.79,15A15.28,15.28,0,0,0,792,367.1a14.57,14.57,0,0,0,8-2.36V339.41a16.87,16.87,0,0,0-6.68-2.38A5.06,5.06,0,0,0,792,336.9Zm0,21.34c-8.07,0-8-12,0-12.47C800,346.2,800.05,358.24,792,358.24Z"/><path class="cls-2" d="M800,184.29V171.8l-5.84,5.83C790.27,181.53,796,187.5,800,184.29Z"/><path class="cls-2" d="M788.86,213.1c-4,4,2.23,10.32,6.27,6.27l4.87-4.86V202Z"/><path class="cls-2" d="M194.5,239.1H322.83c5.71,0,5.72-8.86,0-8.86H194.5C188.79,230.24,188.78,239.1,194.5,239.1Z"/><path class="cls-2" d="M136.9,288.17v64.67c0,5.7,8.86,5.71,8.86,0V288.17C145.76,282.47,136.9,282.46,136.9,288.17Z"/><path class="cls-2" d="M380.43,352.84V288.17c0-5.71-8.87-5.71-8.87,0v64.67C371.56,358.54,380.43,358.55,380.43,352.84Z"/><path class="cls-2" d="M186.66,260.44H350.23v96.73c0,5.71,8.87,5.72,8.87,0v-98a4.08,4.08,0,0,0-3.43-4.17,4.07,4.07,0,0,0-4.17-3.43H165.83a4.07,4.07,0,0,0-4.17,3.43,4.06,4.06,0,0,0-3.43,4.17v98c0,5.71,8.87,5.72,8.87,0V260.44Z"/><path class="cls-2" d="M264.16,443.57H253.49c-5.7,0-5.71,8.87,0,8.87h10.67C269.87,452.44,269.88,443.57,264.16,443.57Z"/><path class="cls-2" d="M272.16,422.24h-27c-5.7,0-5.71,8.86,0,8.86h27C277.87,431.1,277.88,422.24,272.16,422.24Z"/><path class="cls-2" d="M314.79,281.77H328.9V365.5c0,5.71,8.86,5.72,8.86,0V277.34a4.5,4.5,0,0,0-4.43-4.44H184a4.51,4.51,0,0,0-4.44,4.44v88.17c0,5.7,8.87,5.71,8.87,0V281.77Z"/><path class="cls-2" d="M285.16,400.9h-53c-5.7,0-5.71,8.87,0,8.87h53C290.87,409.77,290.88,400.9,285.16,400.9Z"/><path class="cls-2" d="M307.56,303.1v75.4c0,5.71,8.87,5.72,8.87,0V298.67a4.49,4.49,0,0,0-4.43-4.43H205.33a4.49,4.49,0,0,0-4.43,4.43V378.5c0,5.71,8.86,5.72,8.86,0V303.1Z"/><path class="cls-2" d="M295.1,384V320a4.06,4.06,0,0,0-1.19-3,2,2,0,0,0-.14-.16l-.09-.08a4.09,4.09,0,0,0-3-1.2h-64a4.5,4.5,0,0,0-4.43,4.43v64a4.5,4.5,0,0,0,4.43,4.44h64A4.5,4.5,0,0,0,295.1,384Zm-8.87-4.43H231.1V324.44h55.13Z"/><path class="cls-2" d="M248,367.1h21.33a4.49,4.49,0,0,0,4.43-4.43V341.34a4.1,4.1,0,0,0-1.18-3l-.14-.15-.09-.08a4.07,4.07,0,0,0-3-1.21H248a4.5,4.5,0,0,0-4.44,4.44v21.33A4.49,4.49,0,0,0,248,367.1Zm4.43-8.86V345.77H264.9v12.47Z"/><path class="cls-2" d="M392,363.57c-48.43.4-92.61,29.24-111.91,73.77-.08.19-.12.37-.18.55a4.06,4.06,0,0,0-.26.51,124.05,124.05,0,0,0-9.42,47.77c0,5.7,8.89,5.71,8.87,0A117.4,117.4,0,0,1,288,441.38,114.52,114.52,0,0,1,392,372.44c62,.48,113.11,51.51,112.89,113.73,0,5.71,8.85,5.71,8.87,0C514,419.13,458.81,364.09,392,363.57Z"/><path class="cls-2" d="M397.46,576.75c-1.27.07-2.55.12-3.83.14-2.28,0-4.55,0-6.83-.12a4.45,4.45,0,0,0-4.43,4.43,4.53,4.53,0,0,0,4.43,4.43c2.28.12,4.55.16,6.83.13,1.28,0,2.56-.07,3.83-.14a4.52,4.52,0,0,0,4.44-4.44C401.79,578.89,399.94,576.61,397.46,576.75Z"/><path class="cls-2" d="M392,384.9c-1.09,0-2.18,0-3.27.06a101.61,101.61,0,0,0-97,105.66c.23,5.69,9.1,5.72,8.86,0-2.07-50.91,36.89-94.59,88.16-96.8,1.09,0,2.18-.05,3.27-.05,52.43.5,93.81,44.65,91.42,96.91-.26,5.71,8.6,5.7,8.86,0C494.89,433.59,449.06,385.45,392,384.9Z"/><path class="cls-2" d="M405.17,554.35a73.81,73.81,0,0,1-26.47,0c-5.58-1-8,7.52-2.35,8.55a86.22,86.22,0,0,0,31.18,0C413.13,561.89,410.76,553.34,405.17,554.35Z"/><path class="cls-2" d="M392,406.24c-49.85.61-86.24,45.85-77.57,94.6,1,5.6,9.54,3.23,8.55-2.36a71,71,0,0,1,69-83.38c43.61.54,76.59,40.13,69.06,83.17-1,5.58,7.56,8,8.55,2.36C478.13,451.94,441.76,406.85,392,406.24Z"/><path class="cls-2" d="M392,427.57a59.47,59.47,0,0,0-34.9,11.77c-.15.12-.27.25-.41.37s-.33.2-.49.32c-18.22,14.69-26.33,39.23-19.57,61.81A58.28,58.28,0,0,0,379,541.62c44.11,10,83.47-34.46,66.95-77C437.24,442.29,415.79,428,392,427.57ZM433,512c-20.53,31.77-69.54,28-85.42-6.14-9.7-20.85-2.91-44.93,14.49-59.23A51.24,51.24,0,0,1,392,436.44C429.94,437.09,453.94,479.6,433,512Z"/><path class="cls-2" d="M392,448.9c-15.28.43-28.89,9.49-34.23,24a36.66,36.66,0,0,0,11,40.45c25.7,21.21,64.91-1.81,59.06-34.57C424.71,461.36,409.36,449.39,392,448.9Zm0,64a27.81,27.81,0,0,1-27.57-27.56c0-15.35,12.54-27.15,27.57-27.57,15,.42,27.56,12.22,27.56,27.57A27.82,27.82,0,0,1,392,512.9Z"/><path class="cls-2" d="M393.32,470.37a4.33,4.33,0,0,0-1.32-.13,4.57,4.57,0,0,0-1.31.12c-7.6,1-13.79,6.9-13.79,15a15.09,15.09,0,0,0,30.16.58C407.43,477.62,401.1,471.39,393.32,470.37ZM392,491.57c-8.07,0-8-12,0-12.47C400,479.53,400.05,491.57,392,491.57Z"/><path class="cls-2" d="M638.75,305.76l11.39,11.39c4,4,10.31-2.23,6.27-6.27L577.52,232l-11.39-11.4c-4-4-10.31,2.23-6.27,6.27Z"/><path class="cls-2" d="M400.43,317.24l78.89-78.89L490.71,227c4-4-2.23-10.31-6.27-6.27l-78.88,78.88L394.16,311C390.12,315,396.39,321.28,400.43,317.24Z"/><path class="cls-2" d="M661.8,346.44,547.13,231.77,530.9,215.54a38,38,0,0,0-11.14,0L405.09,330.21l-16.23,16.23c-4,4,2.23,10.31,6.27,6.27L509.8,238l15.53-15.53,114,114,16.23,16.23C659.57,356.75,665.84,350.48,661.8,346.44Z"/><path class="cls-2" d="M541.43,256.24l-13-13a4.51,4.51,0,0,0-6.27,0l-91.51,91.52-13.14,13.14-.94.94a4.5,4.5,0,0,0,0,6.27l3.65,3.65a4.43,4.43,0,0,0,6.27-6.27L426,352l89.33-89.32,10-10,89.49,89.49,13,13c4,4,10.31-2.23,6.27-6.27Z"/><path class="cls-2" d="M528.46,273.44a4.51,4.51,0,0,0-6.27,0l-14.14,14.15-61.28,61.28a4.5,4.5,0,0,0,0,6.27l75.42,75.42a4.49,4.49,0,0,0,6.27,0l75.43-75.42a4.5,4.5,0,0,0,0-6.27ZM456.17,352l58.15-58.14,11-11L594.48,352l-69.15,69.16Z"/><path class="cls-2" d="M528.46,400.39l45.26-45.25a4.07,4.07,0,0,0,1.28-3,1,1,0,0,0,0-.17.81.81,0,0,0,0-.16,4.07,4.07,0,0,0-1.28-3l-45.26-45.26a4.51,4.51,0,0,0-6.27,0l-45.25,45.26a4.5,4.5,0,0,0,0,6.27l45.25,45.25A4.49,4.49,0,0,0,528.46,400.39ZM486.34,352l39-39,39,39-39,39Z"/><path class="cls-2" d="M528.46,370.22l15.09-15.08a4.07,4.07,0,0,0,1.28-3,1,1,0,0,0,0-.17.81.81,0,0,0,0-.16,4.07,4.07,0,0,0-1.28-3l-15.09-15.09a4.51,4.51,0,0,0-6.27,0l-15.08,15.09a4.5,4.5,0,0,0,0,6.27l15.08,15.08A4.49,4.49,0,0,0,528.46,370.22Zm-12-18.22,8.82-8.81,8.81,8.81-8.81,8.82Z"/><path class="cls-2" d="M104.89,352.84c0,5.7,8.85,5.71,8.87,0C114,288.49,63.16,235.22,0,230.57v8.88C58.36,244,105.1,293.31,104.89,352.84Z"/><path class="cls-2" d="M1.9,447.85A5,5,0,0,0,0,444.22v7.19A4.1,4.1,0,0,0,1.9,447.85Z"/><path class="cls-2" d="M83.42,357.35c-.26,5.71,8.6,5.69,8.86,0C94.77,303,53.28,256.68,0,252v8.9C48.57,265.51,85.68,307.78,83.42,357.35Z"/><path class="cls-2" d="M5.17,421c-1.72.31-3.44.54-5.17.73v8.84q3.75-.34,7.53-1C13.13,428.56,10.76,420,5.17,421Z"/><path class="cls-2" d="M61.06,364.94c-1,5.58,7.56,8,8.55,2.36,8.06-46-24-88.86-69.61-93.9v8.92C39.55,287.24,68.12,324.57,61.06,364.94Z"/><path class="cls-2" d="M45.92,331.3A58.3,58.3,0,0,0,0,294.92v9c33.17,6,52.42,44.72,33,74.78A47.29,47.29,0,0,1,0,399.86v9.2C34.46,403.8,59.74,366.88,45.92,331.3Z"/><path class="cls-2" d="M27.82,345.46C25.2,330.77,13.88,320,0,316.63v9.16A27.53,27.53,0,0,1,19.56,352,27.82,27.82,0,0,1,0,378.33v8.78C17.38,382.78,31.5,366,27.82,345.46Z"/><path class="cls-2" d="M7.07,352.58A14.56,14.56,0,0,0,0,339.41v25.33A15.38,15.38,0,0,0,7.07,352.58Z"/><path class="cls-2" d="M238.75,172.42l11.39,11.4c4,4,10.31-2.23,6.27-6.27L177.52,98.66,166.13,87.27c-4-4-10.31,2.23-6.27,6.27Z"/><path class="cls-2" d="M79.32,105,90.71,93.63c4-4-2.23-10.32-6.27-6.27L5.56,166.24Q2.77,169,0,171.8v12.49a5.22,5.22,0,0,0,.43-.39Z"/><path class="cls-2" d="M125.33,89.18l114,114,16.23,16.23c4,4,10.31-2.22,6.27-6.27Q204.46,155.77,147.13,98.43L130.9,82.2a4.11,4.11,0,0,0-5.57-.4,4.11,4.11,0,0,0-5.57.4Q62.43,139.55,5.09,196.87L0,202v12.54L109.8,104.7Z"/><path class="cls-2" d="M141.43,122.91l-13-13a4.49,4.49,0,0,0-6.26,0Q76.44,155.7,30.68,201.46L17.54,214.59l-.94.95a4.5,4.5,0,0,0,0,6.27l3.65,3.65a4.43,4.43,0,0,0,6.27-6.27l-.51-.52,89.32-89.32,10-10,89.49,89.49q6.48,6.48,13,13c4,4,10.31-2.23,6.27-6.27Z"/><path class="cls-2" d="M128.46,140.11a4.49,4.49,0,0,0-6.26,0l-14.15,14.14L46.77,215.54a4.5,4.5,0,0,0,0,6.27l75.43,75.42a4.49,4.49,0,0,0,6.26,0l75.43-75.42a4.5,4.5,0,0,0,0-6.27Q166.18,177.82,128.46,140.11Zm-3.13,147.72L56.18,218.67l58.14-58.15,11-11,69.15,69.15Z"/><path class="cls-2" d="M76.94,215.54a4.5,4.5,0,0,0,0,6.27l45.26,45.25a4.49,4.49,0,0,0,6.26,0l45.26-45.25a4.09,4.09,0,0,0,1.28-3,1.09,1.09,0,0,0,0-.18.76.76,0,0,0,0-.15,4.07,4.07,0,0,0-1.28-3l-45.26-45.26a4.49,4.49,0,0,0-6.26,0Zm87.37,3.13-39,39-39-39,39-39Z"/><path class="cls-2" d="M107.11,221.81l15.09,15.08a4.49,4.49,0,0,0,6.26,0l15.09-15.08a4.09,4.09,0,0,0,1.28-3,1.09,1.09,0,0,0,0-.18.76.76,0,0,0,0-.15,4.07,4.07,0,0,0-1.28-3l-15.09-15.09a4.49,4.49,0,0,0-6.26,0l-15.09,15.09A4.5,4.5,0,0,0,107.11,221.81Zm18.22-11.95,8.82,8.81-8.82,8.82-8.82-8.82Z"/><path class="cls-2" d="M664.16,43.57H653.49c-5.7,0-5.71,8.87,0,8.87h10.67C669.87,52.44,669.87,43.57,664.16,43.57Z"/><path class="cls-2" d="M672.16,22.24h-27c-5.7,0-5.71,8.86,0,8.86h27C677.87,31.1,677.88,22.24,672.16,22.24Z"/><path class="cls-2" d="M685.16.9h-53c-5.7,0-5.71,8.87,0,8.87h53C690.87,9.77,690.88.9,685.16.9Z"/><path class="cls-2" d="M680.09,37.34c-.08.19-.12.37-.18.55a4.06,4.06,0,0,0-.26.51,123.87,123.87,0,0,0-9.42,47.77c0,5.7,8.89,5.71,8.87,0A117.4,117.4,0,0,1,688,41.38,115.64,115.64,0,0,1,718.54,0h-13.1A121.31,121.31,0,0,0,680.09,37.34Z"/><path class="cls-2" d="M793.63,176.89c-2.28,0-4.55,0-6.83-.12a4.45,4.45,0,0,0-4.43,4.43,4.52,4.52,0,0,0,4.43,4.43c2.28.12,4.55.16,6.83.13,1.28,0,2.56-.07,3.83-.14a5,5,0,0,0,2.54-.88v-7.19a3.86,3.86,0,0,0-2.54-.8C796.19,176.82,794.91,176.87,793.63,176.89Z"/><path class="cls-2" d="M691.71,90.62c.23,5.69,9.09,5.72,8.86,0A93.14,93.14,0,0,1,759.29,0H739.82A101.67,101.67,0,0,0,691.71,90.62Z"/><path class="cls-2" d="M778.7,154.33c-5.58-1-8,7.53-2.35,8.55A86.24,86.24,0,0,0,800,163.93v-8.85A73.56,73.56,0,0,1,778.7,154.33Z"/><path class="cls-2" d="M714.43,100.84c1,5.6,9.54,3.23,8.55-2.36A71,71,0,0,1,792,15.1a72.59,72.59,0,0,1,8,.55V6.73c-2.63-.29-5.29-.46-8-.49C742.15,6.85,705.76,52.09,714.43,100.84Z"/><path class="cls-2" d="M757.1,39.34c-.15.12-.27.25-.41.37s-.33.2-.49.32C738,54.72,729.87,79.26,736.63,101.84A58.28,58.28,0,0,0,779,141.62a56.37,56.37,0,0,0,21,.78v-9.21c-20.46,3.12-42.67-6.38-52.42-27.32S744.67,61,762.07,46.64A51.22,51.22,0,0,1,792,36.44a49.86,49.86,0,0,1,8,.78v-9a60.65,60.65,0,0,0-8-.68A59.47,59.47,0,0,0,757.1,39.34Z"/><path class="cls-2" d="M757.77,72.91a36.66,36.66,0,0,0,11,40.45A35,35,0,0,0,800,120.45v-8.78a27.25,27.25,0,0,1-8,1.23,27.81,27.81,0,0,1-27.57-27.56C764.43,70,777,58.19,792,57.77a29.46,29.46,0,0,1,8,1.35V50a39.31,39.31,0,0,0-8-1.06C776.72,49.33,763.11,58.39,757.77,72.91Z"/><path class="cls-2" d="M792,70.24a4.2,4.2,0,0,0-1.31.13c-7.6,1-13.79,6.89-13.79,15a15.29,15.29,0,0,0,15.1,15.1,14.67,14.67,0,0,0,8-2.37V72.74a16.85,16.85,0,0,0-6.68-2.37A4.33,4.33,0,0,0,792,70.24Zm0,21.33c-8.07,0-8-12,0-12.47C800,79.53,800.05,91.57,792,91.57Z"/><path class="cls-2" d="M136.9,21.51V86.17c0,5.71,8.86,5.71,8.86,0V21.51C145.76,15.8,136.9,15.79,136.9,21.51Z"/><path class="cls-2" d="M380.43,86.17V21.5c0-5.7-8.87-5.71-8.87,0V86.17C371.56,91.88,380.43,91.89,380.43,86.17Z"/><path class="cls-2" d="M350.23,90.5c0,5.71,8.87,5.72,8.87,0V0h-8.87Z"/><path class="cls-2" d="M167.1,90.5V0h-8.87V90.5C158.23,96.21,167.1,96.22,167.1,90.5Z"/><path class="cls-2" d="M264.16,176.9H253.49c-5.7,0-5.71,8.87,0,8.87h10.67C269.87,185.77,269.88,176.9,264.16,176.9Z"/><path class="cls-2" d="M272.16,155.57h-27c-5.7,0-5.71,8.87,0,8.87h27C277.87,164.44,277.88,155.57,272.16,155.57Z"/><path class="cls-2" d="M328.9,15.1V98.84c0,5.7,8.86,5.71,8.86,0V10.67a4.49,4.49,0,0,0-4.43-4.43H184a4.5,4.5,0,0,0-4.44,4.43V98.84c0,5.7,8.87,5.71,8.87,0V15.1H328.9Z"/><path class="cls-2" d="M285.16,134.24h-53c-5.7,0-5.71,8.86,0,8.86h53C290.87,143.1,290.88,134.24,285.16,134.24Z"/><path class="cls-2" d="M307.56,111.84c0,5.7,8.87,5.71,8.87,0V32A4.5,4.5,0,0,0,312,27.57H205.33A4.49,4.49,0,0,0,200.9,32v79.84c0,5.7,8.86,5.71,8.86,0V36.44h97.8Z"/><path class="cls-2" d="M295.1,117.34v-64a4.11,4.11,0,0,0-1.19-3l-.14-.15-.09-.08a4.09,4.09,0,0,0-3-1.21h-64a4.51,4.51,0,0,0-4.43,4.44v64a4.5,4.5,0,0,0,4.43,4.43h64A4.5,4.5,0,0,0,295.1,117.34Zm-8.87-4.44H231.1V57.77h55.13Z"/><path class="cls-2" d="M248,100.44h21.33A4.49,4.49,0,0,0,273.76,96V74.67a4.1,4.1,0,0,0-1.18-3l-.14-.15-.09-.08a4.1,4.1,0,0,0-3-1.2H248a4.5,4.5,0,0,0-4.44,4.43V96A4.5,4.5,0,0,0,248,100.44Zm4.43-21.34H264.9V91.57H252.43Z"/><path class="cls-2" d="M392,96.9c-48.43.41-92.61,29.24-111.91,73.77-.08.19-.12.37-.18.56a3.93,3.93,0,0,0-.26.5,124.05,124.05,0,0,0-9.42,47.77c0,5.71,8.89,5.72,8.87,0A117.43,117.43,0,0,1,288,174.71,114.53,114.53,0,0,1,392,105.77c62,.48,113.11,51.51,112.89,113.73,0,5.71,8.85,5.72,8.87,0C514,152.46,458.81,97.42,392,96.9Z"/><path class="cls-2" d="M397.46,310.08c-1.27.07-2.55.12-3.83.14-2.28,0-4.55,0-6.83-.12a4.45,4.45,0,0,0-4.43,4.43A4.54,4.54,0,0,0,386.8,319c2.28.11,4.55.15,6.83.12,1.28,0,2.56-.07,3.83-.14,2.31-.13,4.55-1.95,4.44-4.43C401.79,312.22,399.94,310,397.46,310.08Z"/><path class="cls-2" d="M392,118.24c-1.09,0-2.18,0-3.27.05a101.61,101.61,0,0,0-97,105.66c.23,5.69,9.1,5.72,8.86,0-2.07-50.91,36.89-94.58,88.16-96.79,1.09,0,2.18,0,3.27-.06,52.43.5,93.81,44.65,91.42,96.92-.26,5.7,8.6,5.69,8.86,0C494.89,166.92,449.06,118.78,392,118.24Z"/><path class="cls-2" d="M405.17,287.68a73.81,73.81,0,0,1-26.47,0c-5.58-1-8,7.53-2.35,8.55a86.22,86.22,0,0,0,31.18,0C413.13,295.22,410.76,286.68,405.17,287.68Z"/><path class="cls-2" d="M392,139.57c-49.85.61-86.24,45.85-77.57,94.6,1,5.61,9.54,3.23,8.55-2.36a71,71,0,0,1,69-83.37c43.61.53,76.59,40.12,69.06,83.17-1,5.58,7.56,8,8.55,2.35C478.13,185.28,441.76,140.18,392,139.57Z"/><path class="cls-2" d="M392,160.9a59.61,59.61,0,0,0-34.9,11.77c-.15.12-.27.25-.41.38a4.55,4.55,0,0,0-.49.32c-18.22,14.68-26.33,39.22-19.57,61.8A58.28,58.28,0,0,0,379,275c44.11,10,83.47-34.45,66.95-77C437.24,175.62,415.79,161.31,392,160.9Zm41,84.44c-20.53,31.77-69.54,28-85.42-6.13-9.7-20.85-2.91-44.93,14.49-59.24A51.31,51.31,0,0,1,392,169.77C429.94,170.42,453.94,212.93,433,245.34Z"/><path class="cls-2" d="M392,182.24c-15.28.42-28.89,9.48-34.23,24a36.65,36.65,0,0,0,11,40.45c25.7,21.21,64.91-1.81,59.06-34.56C424.71,194.69,409.36,182.72,392,182.24Zm0,64a27.82,27.82,0,0,1-27.57-27.57c0-15.35,12.54-27.15,27.57-27.57,15,.42,27.56,12.23,27.56,27.57A27.83,27.83,0,0,1,392,246.24Z"/><path class="cls-2" d="M393.32,203.7a4.66,4.66,0,0,0-1.32-.13,4.23,4.23,0,0,0-1.31.13c-7.6,1-13.79,6.9-13.79,15a15.09,15.09,0,0,0,30.16.58C407.43,211,401.1,204.72,393.32,203.7ZM392,224.9c-8.07,0-8-12,0-12.46C400,212.87,400.05,224.9,392,224.9Z"/><path class="cls-2" d="M650.14,50.48c4,4,10.31-2.23,6.27-6.27L612.2,0H599.66l39.09,39.09Q644.43,44.79,650.14,50.48Z"/><path class="cls-2" d="M394.16,44.3c-4,4,2.23,10.31,6.27,6.27L451,0H438.46l-32.9,32.91Z"/><path class="cls-2" d="M388.86,79.77c-4,4,2.23,10.31,6.27,6.27l86-86H468.63L405.09,63.54Z"/><path class="cls-2" d="M639.3,69.81,655.53,86c4,4,10.31-2.23,6.27-6.27L582,0H569.49Z"/><path class="cls-2" d="M614.82,75.5q6.48,6.5,13,13c4,4,10.31-2.23,6.27-6.27L551.86,0H539.32Q577.06,37.76,614.82,75.5Z"/><path class="cls-2" d="M430.68,68.13,417.54,81.26l-.94.94a4.5,4.5,0,0,0,0,6.27c1.22,1.22,2.43,2.44,3.65,3.65a4.43,4.43,0,0,0,6.27-6.27l-.52-.51L511.34,0H498.8Z"/><path class="cls-2" d="M528.46,6.78a4.5,4.5,0,0,0-6.27,0L508.05,20.92,446.77,82.2a4.5,4.5,0,0,0,0,6.27l75.42,75.43a4.51,4.51,0,0,0,6.27,0l75.43-75.43a4.5,4.5,0,0,0,0-6.27Zm-3.13,147.71L456.17,85.34l58.15-58.15,11-11,69.15,69.16Z"/><path class="cls-2" d="M476.94,82.2a4.5,4.5,0,0,0,0,6.27l45.25,45.26a4.51,4.51,0,0,0,6.27,0l45.26-45.26a4.06,4.06,0,0,0,1.28-3,1.09,1.09,0,0,0,0-.18.92.92,0,0,0,0-.16,4.1,4.1,0,0,0-1.28-3L528.46,37a4.49,4.49,0,0,0-6.27,0Zm87.37,3.14-39,39-39-39,39-39Z"/><path class="cls-2" d="M507.11,88.47l15.08,15.09a4.51,4.51,0,0,0,6.27,0l15.09-15.09a4.06,4.06,0,0,0,1.28-3,1.09,1.09,0,0,0,0-.18.92.92,0,0,0,0-.16,4.1,4.1,0,0,0-1.28-3L528.46,67.12a4.49,4.49,0,0,0-6.27,0L507.11,82.2A4.5,4.5,0,0,0,507.11,88.47Zm18.22-12,8.81,8.82q-4.39,4.41-8.81,8.81l-8.82-8.81Z"/><path class="cls-2" d="M104.89,86.17c0,5.71,8.85,5.72,8.87,0A121.41,121.41,0,0,0,78.09,0H65.16A113,113,0,0,1,104.89,86.17Z"/><path class="cls-2" d="M1.9,181.18A5,5,0,0,0,0,177.55v7.19A4.08,4.08,0,0,0,1.9,181.18Z"/><path class="cls-2" d="M83.42,90.68c-.26,5.71,8.6,5.7,8.86,0A101.29,101.29,0,0,0,44.11,0H24.49A92.83,92.83,0,0,1,83.42,90.68Z"/><path class="cls-2" d="M5.17,154.35c-1.72.31-3.44.54-5.17.73v8.85c2.5-.24,5-.57,7.53-1C13.13,161.89,10.76,153.34,5.17,154.35Z"/><path class="cls-2" d="M61.06,98.27c-1,5.58,7.56,8,8.55,2.36,8.06-46-24-88.85-69.61-93.9v8.92C39.55,20.58,68.12,57.9,61.06,98.27Z"/><path class="cls-2" d="M45.92,64.63A58.32,58.32,0,0,0,0,28.25v9c33.17,6,52.42,44.72,33,74.79A47.27,47.27,0,0,1,0,133.19v9.21C34.46,137.13,59.74,100.21,45.92,64.63Z"/><path class="cls-2" d="M27.82,78.79C25.2,64.1,13.88,53.29,0,50v9.16A27.54,27.54,0,0,1,19.56,85.34,27.84,27.84,0,0,1,0,111.67v8.78C17.38,116.11,31.5,99.38,27.82,78.79Z"/><path class="cls-2" d="M7.07,85.92A14.58,14.58,0,0,0,0,72.74V98.07A15.35,15.35,0,0,0,7.07,85.92Z"/><path class="cls-2" d="M128.46,30.56,159,0H146.49L125.33,21.16,104.17,0H91.63L122.2,30.56A4.48,4.48,0,0,0,128.46,30.56Z"/><path class="cls-2" d="M128.46.39l.4-.39H121.8l.4.39A4.48,4.48,0,0,0,128.46.39Z"/><path class="cls-2" d="M397.46,43.42c-1.27.07-2.55.11-3.83.14-2.28,0-4.55,0-6.83-.13a4.47,4.47,0,0,0-4.43,4.44,4.53,4.53,0,0,0,4.43,4.43c2.28.11,4.55.16,6.83.12,1.28,0,2.56-.07,3.83-.14a4.51,4.51,0,0,0,4.44-4.43C401.79,45.56,399.94,43.28,397.46,43.42Z"/><path class="cls-2" d="M405.17,21a73.59,73.59,0,0,1-26.47,0c-5.58-1-8,7.53-2.35,8.55a86.22,86.22,0,0,0,31.18,0C413.13,28.56,410.76,20,405.17,21Z"/><path class="cls-2" d="M423.2,0H399a51.2,51.2,0,0,1-13.49,0H359.93a56.3,56.3,0,0,0,19,8.28A56.46,56.46,0,0,0,423.2,0Z"/></g></svg>